<svg width="32" height="44" viewBox="0 0 32 44" fill="none" xmlns="http://www.w3.org/2000/svg">
<path d="M14.3332 30.0001C16.6998 29.9996 18.9982 29.2073 20.8625 27.7494L26.7238 33.6107L28.6092 31.7254L22.7478 25.8641C24.2065 23.9996 24.9993 21.7007 24.9998 19.3334C24.9998 13.4521 20.2145 8.66675 14.3332 8.66675C8.45184 8.66675 3.6665 13.4521 3.6665 19.3334C3.6665 25.2147 8.45184 30.0001 14.3332 30.0001ZM14.3332 11.3334C18.7452 11.3334 22.3332 14.9214 22.3332 19.3334C22.3332 23.7454 18.7452 27.3334 14.3332 27.3334C9.92117 27.3334 6.33317 23.7454 6.33317 19.3334C6.33317 14.9214 9.92117 11.3334 14.3332 11.3334Z" fill="#E4E4E4"/>
</svg>
