<svg width="19" height="18" viewBox="0 0 19 18" fill="none" xmlns="http://www.w3.org/2000/svg">
<g clip-path="url(#clip0_744_259)">
<path d="M2.36049 11.6L1.41049 15.7C1.37772 15.8498 1.37884 16.0051 1.41378 16.1545C1.44872 16.3039 1.51658 16.4436 1.61242 16.5634C1.70826 16.6832 1.82966 16.7801 1.96773 16.847C2.10581 16.9138 2.25708 16.949 2.41049 16.95C2.48198 16.9572 2.55401 16.9572 2.62549 16.95L6.75049 16L14.6705 8.10995L10.2505 3.69995L2.36049 11.6Z" fill="#6F6F6F"/>
<path d="M17.1594 4.15998L14.2094 1.20999C14.0154 1.01702 13.753 0.908691 13.4794 0.908691C13.2058 0.908691 12.9433 1.01702 12.7494 1.20999L11.1094 2.84998L15.5244 7.26499L17.1644 5.62499C17.2604 5.52852 17.3364 5.41409 17.3881 5.28822C17.4398 5.16235 17.4661 5.02752 17.4657 4.89145C17.4652 4.75538 17.4379 4.62073 17.3854 4.49522C17.3328 4.36971 17.256 4.25579 17.1594 4.15998Z" fill="#6F6F6F"/>
</g>
<defs>
<clipPath id="clip0_744_259">
<rect width="18" height="18" fill="white" transform="translate(0.25)"/>
</clipPath>
</defs>
</svg>
