<svg width="169" height="44" viewBox="0 0 169 44" fill="none" xmlns="http://www.w3.org/2000/svg">
<path d="M0 32H2.8V24.04H6.48V28.04H7.44V32H12.08V28.04H13V24.04H13.92V20.08H13V16.08H12.08V12.12H7.44V16.08H6.48V20.08H2.8V12.12H0V32ZM7.44 20.08H8.36V16.08H11.12V20.08H12.08V24.04H11.12V28.04H8.36V24.04H7.44V20.08ZM18.5588 32H25.9988V28.04H19.5188V24.04H25.9988V28.04H27.8388V32H30.6388V12.12H18.5588V16.08H27.8388V20.08H17.6388V24.04H16.7188V28.04H18.5588V32ZM37.5481 12H44.0281V8.04H37.5481V12ZM44.9481 20.08H39.3881V24.04H44.9481V32H47.7481V16.08H44.9481V20.08ZM33.8281 32H36.6281V28.04H39.3881V24.04H36.6281V16.08H33.8281V32ZM53.3469 16.08H61.6669V12.12H53.3469V16.08ZM61.6669 20.08H64.4669V16.08H61.6669V20.08ZM51.4669 28.04H53.3469V16.08H51.4669V20.08H50.5469V24.04H51.4669V28.04ZM61.6669 28.04H64.4669V24.04H61.6669V28.04ZM53.3469 32H61.6669V28.04H53.3469V32ZM69.1056 32H76.5456V28.04H70.0656V24.04H76.5456V28.04H78.3856V32H81.1856V12.12H69.1056V16.08H78.3856V20.08H68.1856V24.04H67.2656V28.04H69.1056V32ZM95.495 32H98.295V12.12H95.495V16.12H93.655V20.08H95.495V32ZM84.375 32H87.175V20.08H89.015V16.12H87.175V12.12H84.375V32ZM90.855 20.08H89.015V24.04H90.855V20.08ZM93.655 20.08H91.815V24.04H93.655V20.08ZM91.815 24.04H90.855V28.04H91.815V24.04ZM101.094 20.08H102.014V24.04H103.854V12.16H101.094V20.08ZM103.854 28.04H108.494V32H102.934V35.96H109.414V32H111.294V28.04H112.214V24.08H114.974V12.16H112.214V20.08H111.294V24.08H103.854V28.04ZM117.812 35.96H120.573V28.04H129.853V24.04H131.693V16.12H129.853V12.16H117.812V35.96ZM120.573 16.12H128.933V24.04H120.573V16.12ZM136.371 32H143.811V28.04H137.331V24.04H143.811V28.04H145.651V32H148.451V12.12H136.371V16.08H145.651V20.08H135.451V24.04H134.531V28.04H136.371V32ZM155.361 12H161.841V8.04H155.361V12ZM162.761 20.08H157.201V24.04H162.761V32H165.561V16.08H162.761V20.08ZM151.641 32H154.441V28.04H157.201V24.04H154.441V16.08H151.641V32Z" fill="#4FC631"/>
</svg>
