<svg width="32" height="32" viewBox="0 0 32 32" fill="none" xmlns="http://www.w3.org/2000/svg">
<path d="M14.3332 24.0001C16.6998 23.9996 18.9982 23.2073 20.8625 21.7494L26.7238 27.6107L28.6092 25.7254L22.7478 19.8641C24.2065 17.9996 24.9993 15.7007 24.9998 13.3334C24.9998 7.45208 20.2145 2.66675 14.3332 2.66675C8.45184 2.66675 3.6665 7.45208 3.6665 13.3334C3.6665 19.2147 8.45184 24.0001 14.3332 24.0001ZM14.3332 5.33341C18.7452 5.33341 22.3332 8.92141 22.3332 13.3334C22.3332 17.7454 18.7452 21.3334 14.3332 21.3334C9.92117 21.3334 6.33317 17.7454 6.33317 13.3334C6.33317 8.92141 9.92117 5.33341 14.3332 5.33341Z" fill="#6F6F6F"/>
</svg>
