<svg width="16" height="18" viewBox="0 0 16 18" fill="none" xmlns="http://www.w3.org/2000/svg">
<path d="M5.30045 1.42014L5.07143 1.875H2.01786C1.45485 1.875 1 2.32985 1 2.89286C1 3.45586 1.45485 3.91071 2.01786 3.91071H14.2321C14.7951 3.91071 15.25 3.45586 15.25 2.89286C15.25 2.32985 14.7951 1.875 14.2321 1.875H11.1786L10.9496 1.42014C10.7778 1.07344 10.4247 0.857142 10.0398 0.857142H6.21016C5.82528 0.857142 5.47221 1.07344 5.30045 1.42014ZM14.2321 4.92857H2.01786L2.69219 15.7115C2.74308 16.5162 3.41105 17.1429 4.21579 17.1429H12.0342C12.839 17.1429 13.5069 16.5162 13.5578 15.7115L14.2321 4.92857Z" fill="#6F6F6F"/>
</svg>
