<svg width="44" height="44" viewBox="0 0 44 44" fill="none" xmlns="http://www.w3.org/2000/svg">
<path d="M20.7109 6.53125H23.2891C23.5182 6.53125 23.6328 6.64583 23.6328 6.875V37.125C23.6328 37.3542 23.5182 37.4688 23.2891 37.4688H20.7109C20.4818 37.4688 20.3672 37.3542 20.3672 37.125V6.875C20.3672 6.64583 20.4818 6.53125 20.7109 6.53125Z" fill="#E4E4E4"/>
<path d="M7.5625 20.3672H36.4375C36.6667 20.3672 36.7812 20.4818 36.7812 20.7109V23.2891C36.7812 23.5182 36.6667 23.6328 36.4375 23.6328H7.5625C7.33333 23.6328 7.21875 23.5182 7.21875 23.2891V20.7109C7.21875 20.4818 7.33333 20.3672 7.5625 20.3672Z" fill="#E4E4E4"/>
</svg>
